<?xml version="1.0" encoding="UTF-8"?><svg xmlns="http://www.w3.org/2000/svg" viewBox="0 0 400 114.02"><defs><style>.d{fill:#fff;}</style></defs><g id="a"/><g id="b"><g id="c"><g><g><path class="d" d="M133.27,27.54c0-.66,.18-1.18,.54-1.56,.36-.38,.8-.58,1.3-.62h45.34c.73,0,1.27,.21,1.63,.61,.36,.41,.54,.96,.54,1.65v11.72c0,.54-.19,1.05-.57,1.54-.38,.49-.93,.73-1.66,.73h-28.81v14.69h21.27c.6,0,1.11,.17,1.52,.5,.41,.33,.62,.86,.62,1.59v11.32c0,.54-.18,1.05-.54,1.54-.36,.49-.86,.73-1.49,.73h-21.37v21.7c0,1.36-.73,2.04-2.18,2.04h-14.45c-1.14-.16-1.71-.82-1.71-1.99V27.54Z"/><path class="d" d="M191.74,27.4c0-.57,.19-1.06,.57-1.47,.38-.41,.9-.62,1.56-.62h14.02c.54,0,1.03,.19,1.47,.57,.44,.38,.68,.88,.71,1.52v51.55h26.06c.57,0,1.06,.19,1.47,.57,.41,.38,.62,.9,.62,1.56v12.46c0,.54-.18,1.03-.54,1.47-.36,.44-.88,.68-1.54,.71h-42.31c-1.39,0-2.08-.69-2.08-2.08V27.4Z"/><path class="d" d="M248.51,27.45c0-.57,.17-1.06,.52-1.47,.35-.41,.87-.62,1.56-.62h13.93c.47,0,.98,.19,1.52,.57,.54,.38,.81,.88,.81,1.52V93.64c0,1.39-.77,2.08-2.32,2.08h-13.93c-1.39,0-2.08-.69-2.08-2.08V27.45Z"/><path class="d" d="M280.25,27.54c0-.66,.17-1.19,.52-1.59,.35-.39,.87-.59,1.56-.59h30.28c2.18,0,4.23,.3,6.16,.9,1.93,.6,3.7,1.43,5.31,2.49,1.61,1.06,3.06,2.32,4.36,3.79,1.29,1.47,2.39,3.06,3.29,4.76,.9,1.71,1.59,3.5,2.06,5.38,.47,1.88,.71,3.78,.71,5.71,0,2.84-.51,5.62-1.54,8.34-1.03,2.72-2.49,5.13-4.38,7.25-1.9,2.12-4.17,3.83-6.82,5.14-2.65,1.31-5.59,1.98-8.81,2.01h-14.36v22.55c0,1.36-.73,2.04-2.18,2.04h-14.07c-.63,0-1.14-.17-1.52-.5-.38-.33-.57-.84-.57-1.54V27.54Zm35.68,20.75c0-.95-.17-1.9-.5-2.84-.33-.95-.81-1.79-1.45-2.53-.63-.74-1.4-1.35-2.3-1.82-.9-.47-1.92-.71-3.06-.71h-10.05v15.83h10.05c1.14,0,2.16-.23,3.08-.69,.92-.46,1.68-1.05,2.3-1.78,.62-.73,1.09-1.56,1.42-2.51,.33-.95,.5-1.93,.5-2.94Z"/><path class="d" d="M356.87,27.21c.03-.19,.13-.39,.31-.62,.17-.22,.39-.43,.64-.62,.25-.19,.52-.34,.81-.45,.28-.11,.55-.17,.81-.17h12.13c.54,0,.99,.17,1.37,.5,.38,.33,.66,.62,.85,.88l1.18,2.7,24.88,64.15c.25,.63,.2,1.15-.14,1.54-.35,.4-.95,.59-1.8,.59h-13.6c-.73,0-1.29-.13-1.68-.4-.4-.27-.7-.72-.92-1.35-.63-1.61-1.25-3.21-1.85-4.81-.6-1.59-1.2-3.2-1.8-4.81h-25.16c-.6,1.61-1.21,3.21-1.82,4.81-.62,1.6-1.22,3.2-1.82,4.81-.41,1.17-1.22,1.75-2.42,1.75h-13.98c-.6,0-1.1-.16-1.49-.47-.4-.32-.47-.79-.21-1.42l25.73-66.62Zm8.62,20.28c-.6,1.61-1.21,3.35-1.82,5.21-.62,1.86-1.22,3.74-1.82,5.64-.6,1.9-1.21,3.77-1.82,5.61-.62,1.85-1.22,3.58-1.82,5.19h14.55l-7.25-21.65Z"/></g><path class="d" d="M110.61,0H55.47V.04C23.79,.88-1.46,27.55,.07,59.77c1.38,29.12,24.98,52.76,54.1,54.17,32.6,1.58,59.55-24.24,59.83-56.43h.01V3.4c0-1.88-1.52-3.4-3.4-3.4Zm-11.59,28.5l-22.5,18.03-3.26,2.69c-1.83,2.02-.36,3.45,1.76,3.43l6.98,.02c3.19-.03,3.84,2.38,1.94,4.09,0,0-1.83,1.51-2.84,2.33-8.21,6.7-41.88,34.42-41.88,34.42-2.01,1.42-3.74,.27-3.72-1.44l.1-65.08c0-1.12,1.15-2.2,2.27-2.19h59.4c2.25,0,2.94,2.59,1.75,3.7Z"/></g></g></g></svg>