<?xml version="1.0" encoding="UTF-8"?><svg xmlns="http://www.w3.org/2000/svg" viewBox="0 0 50 50"><defs><style>.d{fill:#fff;}</style></defs><g id="a"/><g id="b"><g id="c"><path class="d" d="M48.51,0H24.32V.02C10.43,.39-.64,12.08,.03,26.21c.6,12.77,10.96,23.14,23.73,23.76,14.3,.69,26.11-10.63,26.24-24.74h0V1.49c0-.82-.67-1.49-1.49-1.49Zm-5.08,12.5l-9.87,7.91-1.43,1.18c-.8,.89-.16,1.51,.77,1.5h3.06c1.4,0,1.68,1.06,.85,1.8,0,0-.8,.66-1.25,1.02-3.6,2.94-18.37,15.1-18.37,15.1-.88,.62-1.64,.12-1.63-.63l.04-28.54c0-.49,.51-.97,1-.96h26.05c.99,0,1.29,1.13,.77,1.62Z"/></g></g></svg>